# xmcd
# 
# Track frame offsets:
#     150
#     17150
#     35010
#     52710
#     70277
#     88417
#     106352
#     120330
#     141277
#     160520
#     175965
#     203180
# 
# Disc length: 2855
# 
# Revision: 2
# Processed by: cddbd v1.5.2PL0 Copyright (c) Steve Scherf et al.
# Submitted via: fre:ac v1.0.31
# 
DISCID=a00b250c
DTITLE=Garbage - Bleed Like Me
DYEAR=2005
DGENRE=Rock/Pop
TTITLE0=Bad Boyfriend
TTITLE1=Run Baby Run
TTITLE2=Right Between The Eyes
TTITLE3=Why Do You Love Me
TTITLE4=Bleed Like Me
TTITLE5=Metal Heart
TTITLE6=Sex Is Not The Enemy
TTITLE7=It's All Over But The Crying
TTITLE8=Boys Wanna Fight
TTITLE9=Why Don't You Come Over
TTITLE10=Happy Home
TTITLE11=I Just Wanna Have Something To Do
EXTD=YEAR: 2005
EXTT0=
EXTT1=
EXTT2=
EXTT3=
EXTT4=
EXTT5=
EXTT6=
EXTT7=
EXTT8=
EXTT9=
EXTT10=
EXTT11=
PLAYORDER=
